<svg width="675" height="570" viewBox="0 0 675 570" fill="none" xmlns="http://www.w3.org/2000/svg">
<g clip-path="url(#clip0_396_679)">
<path opacity="0.1" d="M595.028 270.069C562.882 365.306 652.586 406.202 645.612 463.584C638.557 520.886 473.257 441.815 392.692 436.373C312.126 430.931 324.231 547.857 202.22 539.693C80.2093 531.61 79.7283 427.33 109.389 399.799C139.05 372.268 104.179 326.011 90.4704 274.631C76.6821 223.171 105.301 186.356 152.919 155.784C200.537 125.213 297.215 131.375 381.228 155.784C420.268 167.149 457.705 159.466 484.4 153.864C534.102 143.54 586.53 140.098 600.88 195.8C607.453 221.25 601.361 251.101 595.028 270.069V270.069Z" fill="#2C2A40"/>
<path opacity="0.1" d="M320.443 104.554C322.525 91.2088 326.475 84.8032 332.294 85.337C334.696 85.5772 336.377 88.0594 337.498 90.7017C338.139 92.3031 340.461 92.143 340.941 90.4615C343.264 82.3744 347.988 69.9634 355.354 69.9634C362.961 69.9634 363.201 84.1359 362.641 92.7836C362.561 94.0647 364.242 94.7053 364.963 93.5843C366.965 90.6217 369.927 87.8192 373.45 88.6199C378.094 89.6875 379.776 94.9989 378.495 104.554H320.443Z" fill="#2C2A40"/>
<path opacity="0.1" d="M0 292.48C2.08184 279.135 6.032 272.729 11.8505 273.263C14.3327 273.503 15.9341 275.986 17.0551 278.628C17.6956 280.229 20.0177 280.069 20.4981 278.388C22.8202 270.301 27.5444 257.89 34.9109 257.89C42.5176 257.89 42.7578 272.062 42.1973 280.71C42.1173 281.991 43.7987 282.551 44.5194 281.511C46.5212 278.548 49.4838 275.745 53.0069 276.546C57.651 277.614 59.3592 282.925 58.1314 292.48H0Z" fill="#2C2A40"/>
<path opacity="0.1" d="M616.465 212.65C618.547 199.305 622.524 192.899 628.396 193.433C630.798 193.673 632.399 196.075 633.52 198.717C634.161 200.399 636.483 200.239 636.963 198.557C639.286 190.47 644.09 178.059 651.376 178.059C658.983 178.059 659.223 192.232 658.663 200.879C658.583 202.16 660.264 202.721 661.065 201.68C663.067 198.717 665.949 195.915 669.552 196.716C674.143 197.783 675.825 203.095 674.597 212.65H616.465Z" fill="#2C2A40"/>
<path d="M431.422 264.375C425.283 269.713 417.836 274.037 409.082 277.347C404.064 280.496 398.326 283.912 391.867 287.596C380.417 294.081 371.689 298.405 363.281 300.647C356.155 302.569 349.91 304.971 345.185 307.053C344.598 307.32 344.038 307.56 343.504 307.774C340.354 309.161 337.846 310.389 335.977 311.457L330.132 297.605C337.232 290.505 342.89 285.22 347.107 281.751C354.954 275.265 369.127 261.332 385.781 255.247C387.116 254.767 388.397 254.42 389.625 254.206C398.539 247.961 406.253 243.13 412.765 239.713C415.968 238.032 418.851 236.751 420.692 236.51C431.101 246.119 434.678 255.407 431.422 264.375V264.375Z" fill="#F9B587"/>
<path d="M394.589 262.053C390.906 257.943 387.97 255.674 385.781 255.247C387.116 254.767 388.397 254.42 389.625 254.206C392.614 257.195 394.269 259.811 394.589 262.053Z" fill="#F39568"/>
<path d="M431.422 264.375C425.283 269.713 417.836 274.037 409.082 277.347C404.064 280.496 398.326 283.912 391.867 287.596C398.593 282.791 409.242 272.622 417.409 265.656C422.934 260.852 419.891 254.767 417.65 249.082C416.689 246.68 414.206 242.596 413.085 239.873C413.005 239.793 412.845 239.793 412.765 239.713C415.968 238.032 418.851 236.751 420.692 236.51C431.101 246.119 434.678 255.407 431.422 264.375V264.375Z" fill="#F39568"/>
<path d="M342.943 302.489L344.705 319.224C344.945 320.985 344.224 322.747 342.943 323.948L333.175 332.836C332.054 333.877 330.212 333.796 329.171 332.595C328.29 331.635 328.21 330.193 328.931 329.152L336.137 318.503L334.936 315.3L330.693 321.786L327.33 328.111L325.568 337.88C325.328 339.321 323.967 340.282 322.525 339.962C321.244 339.722 320.443 338.521 320.524 337.24L321.484 325.469L322.926 316.821L319.403 325.709L315.639 340.202C315.319 341.163 314.518 341.884 313.557 342.044C312.036 342.204 310.755 341.003 310.835 339.481L311.556 326.75L314.198 317.542L306.591 330.353L302.428 339.321C301.947 340.282 300.826 340.843 299.785 340.522C298.664 340.122 297.944 338.921 298.344 337.72L301.547 327.151L306.911 316.821L301.707 325.069L300.266 328.272C299.945 328.992 299.145 329.232 298.504 328.992C297.944 328.752 297.623 328.111 297.703 327.471L298.584 323.788L302.187 316.181L330.292 297.524C333.388 296.51 337.605 298.165 342.943 302.489V302.489Z" fill="#F9B587"/>
<path d="M344.865 307.213C344.305 307.453 344.064 307.533 343.504 307.773C343.237 306.279 341.956 304.597 339.66 302.729C339.821 302.809 342.383 303.61 344.865 307.213Z" fill="#F39568"/>
<path d="M602.853 273.984C602.293 275.105 601.012 275.905 599.731 276.386C600.771 293.441 600.451 308.014 597.889 314.58C589.962 334.838 522.943 344.766 506.768 330.033C490.674 315.3 481.866 218.094 503.646 202.801C519.82 191.351 553.85 189.429 570.104 189.269C576.91 189.189 583.076 193.192 585.638 199.518C589.642 209.607 593.325 225.541 595.967 242.596C596.928 242.596 597.969 242.756 598.93 243.076C602.293 244.277 604.455 270.861 602.853 273.984V273.984Z" fill="#2C2A40"/>
<path d="M479.784 474.641C480.425 476.963 481.466 479.365 483.227 481.687C478.476 483.609 473.912 485.477 469.535 487.292C464.491 489.294 456.324 490.495 450.959 492.577C449.678 493.057 448.477 493.618 447.596 494.259C447.382 494.419 447.195 494.579 447.035 494.739C444.073 497.541 428.619 503.947 423.735 505.148C423.254 505.255 422.881 505.308 422.614 505.308C421.172 505.308 419.171 504.668 417.89 502.666C416.769 500.904 416.288 498.022 417.489 493.538C418.69 489.134 422.374 483.849 425.977 479.445C430.461 474.081 435.825 469.517 441.911 465.993C447.596 462.711 454.722 458.387 456.083 456.865C460.567 451.981 464.491 446.296 470.816 443.814C472.418 443.173 474.5 443.013 476.662 443.093C481.145 443.253 486.083 444.188 491.475 445.896C481.332 455.397 477.436 464.979 479.784 474.641V474.641Z" fill="#B0B1CA"/>
<path d="M476.662 443.093C473.619 445.255 468.734 449.179 466.733 452.702C463.77 458.066 451.92 463.591 446.715 466.954C441.59 470.237 421.813 485.771 419.891 494.259C418.21 501.625 421.573 504.427 423.735 505.148C423.254 505.255 422.881 505.308 422.614 505.308C419.891 505.308 415.007 503.066 417.489 493.538C418.69 489.134 422.373 483.849 425.977 479.445C430.461 474.081 435.825 469.517 441.911 465.993C447.596 462.711 454.722 458.387 456.083 456.865C460.567 451.981 464.491 446.296 470.816 443.814C472.418 443.173 474.5 443.013 476.662 443.093V443.093Z" fill="#2C2A40"/>
<path opacity="0.2" d="M483.227 481.687C478.476 483.609 473.912 485.477 469.535 487.292C464.491 489.294 456.323 490.495 450.959 492.577C449.678 493.057 448.476 493.618 447.596 494.258C447.382 494.419 447.195 494.579 447.035 494.739C444.073 497.541 428.619 503.947 423.735 505.148C423.254 505.255 422.881 505.308 422.614 505.308C421.172 505.308 419.171 504.668 417.889 502.666C424.615 501.171 429.713 499.303 433.183 497.061C436.626 494.899 441.19 491.456 445.674 489.054C444.633 487.132 443.192 484.65 440.95 481.687C441.11 481.847 444.633 484.33 447.756 488.013C449.437 487.292 451.119 486.732 452.56 486.652C457.765 486.171 474.019 480.726 479.784 474.641C480.425 476.963 481.466 479.365 483.227 481.687V481.687Z" fill="#2C2A40"/>
<path d="M445.274 428.52C445.114 436.447 446.795 442.933 446.475 445.656C446.155 448.965 443.165 453.956 437.507 460.629C436.866 466.394 432.382 474.481 426.297 478.725C426.244 478.778 426.217 478.805 426.217 478.805C426.164 478.858 426.084 478.912 425.977 478.965C422.454 481.367 418.45 482.488 414.367 481.127C413.94 480.967 413.486 480.78 413.005 480.566C405.238 476.803 402.836 450.059 413.005 439.33C422.854 429.001 427.018 407.702 436.706 405.38C443.219 403.779 448.156 404.392 451.519 407.222C451.253 407.595 450.986 407.969 450.719 408.343C446.555 415.149 445.354 422.275 445.274 428.52V428.52Z" fill="#B0B1CA"/>
<path d="M451.519 407.222C451.253 407.595 450.986 407.969 450.719 408.343C449.838 408.022 440.55 404.739 434.865 408.343C428.939 412.186 425.576 426.679 422.374 430.602C419.251 434.606 409.322 449.099 409.082 454.704C408.842 460.389 407.48 474.321 412.925 478.405C417.97 482.328 424.135 480.086 425.977 478.965C422.053 481.607 417.569 482.728 413.005 480.566C405.238 476.803 402.836 450.059 413.005 439.33C422.854 429.001 427.018 407.702 436.706 405.38C443.219 403.779 448.156 404.392 451.519 407.222V407.222Z" fill="#2C2A40"/>
<path opacity="0.2" d="M446.475 445.655C445.994 450.3 438.788 459.107 437.667 460.469L437.587 460.629C437.587 460.629 437.56 460.629 437.507 460.629C436.866 466.394 432.382 474.481 426.297 478.725C426.244 478.778 426.217 478.805 426.217 478.805C426.164 478.858 426.083 478.912 425.977 478.965C422.454 481.367 418.45 482.488 414.366 481.127C415.007 480.807 415.834 480.54 416.849 480.326C423.735 478.885 429.66 469.356 430.941 464.072C431.341 462.55 432.623 460.549 434.144 458.467C431.742 457.106 428.619 455.664 426.217 455.584C428.299 454.837 431.288 455.344 435.185 457.106C438.788 452.542 443.272 447.817 443.752 445.655C444.286 443.36 444.793 437.648 445.274 428.52C445.114 436.447 446.795 442.933 446.475 445.655V445.655Z" fill="#2C2A40"/>
<path d="M647.453 154.038L627.675 165.007L607.738 176.137C602.399 164.02 602.106 154.224 606.857 146.751C607.978 146.057 609.366 145.283 611.02 144.429C612.782 143.548 615.024 142.427 617.266 141.386C618.547 140.826 619.908 140.265 621.189 139.785C622.471 135.408 624.232 130.764 626.474 125.853C628.316 121.929 628.476 119.287 628.316 117.605C628.209 116.644 627.995 115.951 627.675 115.523C634.508 112.054 639.899 108.664 643.849 105.354C652.284 124.625 653.485 140.853 647.453 154.038Z" fill="#F9B587"/>
<path d="M631.198 147.792C625.593 149.18 620.949 147.045 617.266 141.386C618.547 140.826 619.908 140.265 621.189 139.785C623.752 144.429 627.088 147.098 631.198 147.792Z" fill="#F39568"/>
<path d="M627.675 165.007L607.738 176.137C602.399 164.02 602.106 154.224 606.857 146.751C607.978 146.057 609.366 145.283 611.02 144.429C611.127 154.731 611.901 161.164 613.343 163.726C615.424 167.489 622.551 166.208 627.675 165.007V165.007Z" fill="#F39568"/>
<path d="M643.849 105.354C641.527 107.997 631.118 115.363 629.597 116.084C629.036 116.404 628.316 116.084 627.595 115.523C626.874 115.523 622.23 115.764 619.668 114.563C618.307 113.922 618.307 112 618.627 109.838C615.264 109.038 608.698 103.913 608.778 99.0288C608.885 95.4523 610.833 93.5306 614.623 93.2637C614.73 89.2068 616.705 87.4986 620.549 88.1392C620.762 86.3776 622.47 85.0965 625.673 84.2958C626.234 82.0538 629.357 81.6534 631.198 82.5342C633.12 83.415 644.25 96.3865 644.73 98.7085C645.104 100.31 644.81 102.525 643.849 105.354Z" fill="#F9B587"/>
<path d="M627.275 106.956C627.862 108.984 627.275 110.132 625.513 110.399C626.073 109.999 625.993 108.637 625.913 107.516C625.86 107.036 625.753 106.475 625.593 105.835C625.273 104.874 624.632 103.673 623.351 103.112C621.803 102.419 620.682 102.312 619.988 102.792L615.424 96.5467C616.972 97.5075 618.814 99.1089 620.949 101.351C625.033 101.191 626.554 104.233 627.034 105.915C627.835 105.835 628.716 105.435 629.036 104.314C629.463 102.872 629.196 101.431 628.235 99.9897L621.83 91.5022C627.648 96.8936 630.611 100.657 630.718 102.792C630.931 105.568 629.783 106.956 627.275 106.956V106.956Z" fill="#F39568"/>
<path d="M636.083 99.1089C636.136 102.792 634.241 104.314 630.398 103.673V101.591C630.931 102.072 631.705 102.178 632.72 101.911C634.161 101.511 635.522 99.5093 634.641 97.5075C634.161 96.2798 632.026 93.3972 628.236 88.8599C633.467 93.8776 636.083 97.294 636.083 99.1089V99.1089Z" fill="#F39568"/>
<path d="M635.762 97.9078C636.67 98.7619 637.684 99.0288 638.805 98.7085C640.486 98.148 640.807 97.027 640.406 95.9861C641.1 96.6267 641.154 97.4274 640.566 98.3882C639.445 100.31 636.643 99.9896 635.762 99.7494V97.9078Z" fill="#F39568"/>
<path d="M634.641 114.562C633.467 116.804 631.358 117.819 628.316 117.605C628.209 116.644 627.995 115.95 627.675 115.523C630.184 115.683 632.506 115.363 634.641 114.562V114.562Z" fill="#F39568"/>
<path d="M568.903 372.471C565.06 363.983 563.485 357.337 564.179 352.533C565.3 345.327 575.069 356.697 576.35 359.74C577.631 362.782 575.789 371.27 568.903 372.471V372.471Z" fill="#D4672A"/>
<path d="M495.238 446.776C489.473 449.259 483.468 450.78 478.423 450.94C481.946 448.378 485.79 446.616 489.953 445.656C491.635 445.816 493.396 446.296 495.238 446.776Z" fill="#2C2A40"/>
<path fill-rule="evenodd" clip-rule="evenodd" d="M583.156 508.031C566.021 507.31 514.215 485.851 506.768 482.889C499.402 479.846 499.402 482.248 490.434 482.809C484.509 483.129 481.146 482.515 480.345 480.967C472.872 475.309 469.936 468.636 471.537 460.949C472.418 456.545 475.22 453.262 478.423 450.94C476.662 451.02 475.06 450.94 473.619 450.62C465.879 449.232 457.098 448.538 447.276 448.538C440.389 449.579 429.9 448.298 425.656 436.207C424.375 432.364 424.455 428.921 425.176 425.878C426.697 420.113 430.941 415.389 436.466 413.147C440.79 411.305 447.276 408.663 451.519 407.222C456.057 405.62 459.393 404.74 461.528 404.579C463.85 400.896 461.528 382.56 458.325 376.635C453.254 367.186 451.76 357.978 453.841 349.01C470.549 323.708 497.507 320.665 534.713 339.882C538.396 341.003 537.035 340.443 540.158 341.403L563.779 349.891C569.704 394.17 607.417 452.462 608.458 475.442C609.499 498.342 600.291 508.832 583.156 508.031V508.031ZM550.647 456.065C534.579 441.065 523.636 424.731 517.818 407.062C516.697 411.946 518.058 418.111 514.455 429.321C511.893 436.928 503.966 443.013 495.238 446.777C500.469 448.325 505.861 449.713 511.412 450.94C520.487 450.62 533.565 452.328 550.647 456.065V456.065Z" fill="#140834"/>
<path d="M455.923 412.106L456.164 413.307C455.363 413.467 454.562 413.627 453.761 413.787C452.961 414.001 452.133 414.188 451.279 414.348L451.039 413.147C451.893 412.987 452.721 412.827 453.521 412.666C454.322 412.453 455.123 412.266 455.923 412.106Z" fill="#5B5B6C"/>
<path d="M433.183 418.752L433.744 419.793C432.249 420.54 430.808 421.314 429.42 422.115L428.779 421.074C430.221 420.273 431.689 419.499 433.183 418.752V418.752Z" fill="#5B5B6C"/>
<path d="M448.236 413.788L448.477 414.909C446.635 415.389 445.114 415.709 443.672 416.11L443.352 414.909C444.793 414.588 446.395 414.188 448.236 413.788Z" fill="#5B5B6C"/>
<path d="M468.735 390.487L469.936 390.327C470.149 391.982 470.309 393.637 470.416 395.291L469.215 395.371C469.108 393.717 468.948 392.088 468.735 390.487Z" fill="#5B5B6C"/>
<path d="M459.046 350.292H457.845C457.845 348.637 457.898 346.982 458.005 345.327L459.286 345.407C459.179 347.062 459.099 348.69 459.046 350.292V350.292Z" fill="#5B5B6C"/>
<path d="M467.213 382.88L468.414 382.56C468.841 384.108 469.188 385.736 469.455 387.444L468.254 387.605C467.987 385.95 467.64 384.375 467.213 382.88V382.88Z" fill="#5B5B6C"/>
<path d="M440.55 415.709L440.87 416.91C439.108 417.391 437.667 417.951 436.306 418.512L435.825 417.471C437.187 416.83 438.708 416.27 440.55 415.709V415.709Z" fill="#5B5B6C"/>
<path d="M468.655 405.941L469.856 406.181C469.535 407.355 469.162 408.236 468.735 408.823C468.361 409.357 467.667 409.864 466.653 410.345L466.092 409.304C466.946 408.877 467.507 408.476 467.774 408.103C468.014 407.782 468.334 407.142 468.655 405.941V405.941Z" fill="#5B5B6C"/>
<path d="M466.413 380.078C465.826 378.423 465.185 376.955 464.491 375.674L465.532 375.033C466.279 376.421 466.946 377.996 467.534 379.757L466.413 380.078Z" fill="#5B5B6C"/>
<path d="M459.286 358.058L458.085 358.219C457.978 356.617 457.898 354.936 457.845 353.174H459.046C459.099 354.882 459.179 356.51 459.286 358.058V358.058Z" fill="#5B5B6C"/>
<path d="M470.496 398.814C470.496 400.416 470.416 401.884 470.256 403.218L469.055 403.138C469.215 401.803 469.295 400.335 469.295 398.734C469.295 398.574 469.295 398.414 469.295 398.254H470.496C470.496 398.414 470.496 398.601 470.496 398.814Z" fill="#5B5B6C"/>
<path d="M459.446 366.065C459.073 364.571 458.752 362.916 458.486 361.101L459.687 360.941C459.9 362.649 460.22 364.251 460.648 365.745L459.446 366.065Z" fill="#5B5B6C"/>
<path d="M463.69 372.151C463.797 372.258 463.877 372.391 463.93 372.551L462.969 373.272C462.863 373.112 462.783 372.978 462.729 372.871C461.822 371.75 461.048 370.416 460.407 368.868L461.528 368.387C462.169 369.829 462.889 371.083 463.69 372.151Z" fill="#5B5B6C"/>
<path d="M463.53 410.264L463.85 411.465C462.569 411.866 461.048 412.266 459.046 412.667L458.726 411.546C460.728 411.065 462.249 410.665 463.53 410.264Z" fill="#5B5B6C"/>
<path d="M521.261 404.579C520.674 403.725 520.22 403.058 519.9 402.578L520.941 401.937C520.941 401.937 521.421 402.658 522.222 403.939L521.261 404.579Z" fill="#5B5B6C"/>
<path d="M498.521 451.181C499.802 451.501 501.403 451.901 503.245 452.382L502.925 453.503C501.083 453.022 499.562 452.622 498.281 452.382L498.521 451.181Z" fill="#5B5B6C"/>
<path d="M494.117 450.3C494.491 450.353 495.051 450.433 495.798 450.54L495.558 451.741C494.918 451.634 494.41 451.554 494.037 451.501C493.076 451.501 492.008 451.421 490.834 451.261L490.914 450.06C492.142 450.166 493.209 450.246 494.117 450.3V450.3Z" fill="#5B5B6C"/>
<path d="M505.967 453.102C507.409 453.529 508.957 453.956 510.612 454.383L510.291 455.584C508.637 455.104 507.088 454.677 505.647 454.303L505.967 453.102Z" fill="#5B5B6C"/>
<path d="M513.334 455.104L517.978 456.465L517.578 457.586L513.014 456.305L513.334 455.104Z" fill="#5B5B6C"/>
<path d="M520.62 457.186C522.168 457.613 523.716 458.04 525.264 458.467L524.944 459.668C523.396 459.241 521.848 458.814 520.3 458.387L520.62 457.186Z" fill="#5B5B6C"/>
<path d="M538.396 429.802C537.435 428.521 536.501 427.213 535.594 425.878L536.634 425.158C537.542 426.492 538.449 427.827 539.357 429.161L538.396 429.802Z" fill="#5B5B6C"/>
<path d="M561.537 459.668C561.27 458.547 560.522 457.239 559.295 455.745L560.175 455.024C561.537 456.625 562.417 458.067 562.738 459.348L561.537 459.668Z" fill="#5B5B6C"/>
<path d="M542.88 436.047C541.919 434.766 540.958 433.458 539.998 432.124L541.038 431.403C541.946 432.738 542.88 434.045 543.841 435.327L542.88 436.047Z" fill="#5B5B6C"/>
<path d="M485.95 449.259C486.75 449.366 487.498 449.499 488.192 449.659L488.032 450.78C486.537 450.567 484.935 450.3 483.227 449.979L483.307 449.499C484.215 449.446 485.096 449.366 485.95 449.259V449.259Z" fill="#5B5B6C"/>
<path d="M523.743 406.261C524.544 407.462 525.425 408.823 526.466 410.264L525.425 410.985C524.464 409.464 523.503 408.102 522.782 406.981L523.743 406.261Z" fill="#5B5B6C"/>
<path d="M554.811 464.312L554.971 465.513C554.01 465.62 552.969 465.7 551.848 465.754C551.795 465.754 551.715 465.754 551.608 465.754C551.181 465.754 550.647 465.7 550.006 465.593L550.166 464.392C550.86 464.499 551.421 464.552 551.848 464.552C552.916 464.499 553.903 464.419 554.811 464.312V464.312Z" fill="#5B5B6C"/>
<path d="M558.254 452.862L557.373 453.743C557.213 453.583 557.026 453.396 556.812 453.182C556.012 452.435 555.077 451.474 554.01 450.3L554.891 449.499C555.905 450.62 556.812 451.554 557.613 452.302C557.826 452.515 558.04 452.702 558.254 452.862V452.862Z" fill="#5B5B6C"/>
<path d="M552.168 448.138C551.207 447.017 550.193 445.762 549.125 444.374L550.086 443.654C551.154 444.988 552.168 446.216 553.129 447.337L552.168 448.138Z" fill="#5B5B6C"/>
<path d="M545.442 437.569C546.456 438.903 547.444 440.184 548.405 441.412L547.444 442.133C546.483 440.958 545.496 439.677 544.481 438.289L545.442 437.569Z" fill="#5B5B6C"/>
<path d="M561.296 461.83L562.257 462.47C561.536 463.671 560.095 464.472 557.853 465.033L557.533 463.832C559.455 463.405 560.709 462.737 561.296 461.83V461.83Z" fill="#5B5B6C"/>
<path d="M527.987 459.268C529.588 459.695 531.136 460.095 532.631 460.469L532.311 461.67C530.816 461.243 529.268 460.816 527.667 460.389L527.987 459.268Z" fill="#5B5B6C"/>
<path d="M542.72 463.031C544.535 463.458 546.11 463.778 547.444 463.992L547.204 465.193C545.869 464.979 544.295 464.659 542.48 464.232L542.72 463.031Z" fill="#5B5B6C"/>
<path d="M532.311 418.912C533.165 420.193 534.072 421.528 535.033 422.916L533.992 423.556C533.085 422.222 532.177 420.914 531.27 419.633L532.311 418.912Z" fill="#5B5B6C"/>
<path d="M529.668 417.311C528.761 415.923 527.88 414.588 527.026 413.307L527.987 412.586C528.841 413.868 529.748 415.202 530.709 416.59L529.668 417.311Z" fill="#5B5B6C"/>
<path d="M535.354 461.189C537.062 461.616 538.61 462.017 539.998 462.391L539.757 463.592C538.316 463.218 536.741 462.818 535.033 462.391L535.354 461.189Z" fill="#5B5B6C"/>
<path d="M495.238 446.776C489.473 449.259 483.468 450.78 478.423 450.94C481.946 448.378 485.79 446.616 489.953 445.656C491.635 445.816 493.396 446.296 495.238 446.776Z" fill="#2C2A40"/>
<path d="M609.739 179.1C609.686 184.171 609.526 188.575 609.259 192.311C607.818 192.792 606.323 193.432 604.775 194.233C594.366 199.518 581.394 210.567 578.272 221.777C576.99 226.261 576.43 235.469 576.19 245.879C575.949 254.286 576.03 263.494 576.19 271.661C576.19 272.089 576.19 272.516 576.19 272.943C576.35 283.272 576.59 291.599 576.59 293.921C576.59 300.567 575.309 320.024 574.989 328.432C574.748 336.839 577.151 345.807 578.191 360.06C578.885 369.561 575.789 373.698 568.903 372.471C578.912 368.307 573.788 356.296 567.382 353.734C566.421 353.36 565.327 352.96 564.099 352.533C548.806 347.088 513.334 337.96 495.238 335.318C477.302 332.649 463.503 337.213 453.841 349.01C457.365 329.526 460.621 317.836 463.61 313.939C468.094 308.174 470.736 289.197 472.578 281.27C472.818 280.229 472.898 278.948 472.978 277.347C473.219 270.3 471.697 259.17 470.817 253.405C470.55 251.911 470.336 250.683 470.176 249.722C467.454 254.206 449.758 263.414 440.71 267.898C438.575 268.966 436.813 269.847 435.425 270.54L427.899 259.09L413.005 236.51C413.699 235.923 415.061 234.829 417.089 233.227C419.331 231.466 422.534 228.984 427.258 225.461C438.548 217.053 452 201.76 457.044 199.358C462.009 197.035 462.809 197.276 469.375 190.95C474.019 186.546 490.754 181.181 500.363 178.379C503.085 177.578 505.38 176.938 507.249 176.457C515.79 179.02 523.236 178.512 529.588 174.936C531.937 173.388 534.686 171.653 537.836 169.731C545.523 165.087 556.492 158.842 561.056 158.521C566.821 158.041 591.643 151.075 602.133 148.112C604.108 147.525 605.682 147.071 606.857 146.751C609.419 156.039 609.819 169.331 609.739 179.1Z" fill="#FE7624"/>
<path d="M517.658 188.468C506.288 189.028 501.484 180.621 500.363 178.379C503.085 177.578 505.38 176.938 507.249 176.457C515.79 179.019 523.236 178.512 529.588 174.936C531.937 173.388 534.686 171.653 537.836 169.731C539.197 181.341 530.469 187.827 517.658 188.468V188.468Z" fill="#2C2A40"/>
<path d="M440.71 267.898C438.575 268.966 436.813 269.847 435.425 270.541L413.005 236.51C413.699 235.923 415.061 234.829 417.089 233.228L440.71 267.898Z" fill="#2C2A40"/>
<path d="M609.259 192.311C607.818 192.792 606.323 193.432 604.775 194.233C606.697 175.176 603.654 155.879 602.133 148.112C604.108 147.525 605.683 147.071 606.857 146.751C609.846 157.801 610.647 172.988 609.259 192.311V192.311Z" fill="#2C2A40"/>
<path d="M576.19 271.662C557.693 263.574 512.693 249.082 472.978 277.347C473.218 270.3 471.697 259.171 470.816 253.405C476.822 249.642 505.727 232.347 533.432 233.228C552.409 233.788 567.382 240.674 576.19 245.879C575.949 254.286 576.029 263.494 576.19 271.662V271.662Z" fill="#FFB284"/>
<path d="M487.311 129.856C481.172 128.041 478.37 124.705 478.904 119.847C479.491 114.189 482.213 111.92 487.071 113.041C489.206 116.031 489.286 121.635 487.311 129.856Z" fill="#2C2A40"/>
<path d="M490.914 142.187C484.776 140.372 481.973 137.036 482.507 132.178C483.094 126.52 485.817 124.251 490.674 125.372C492.809 128.361 492.889 133.966 490.914 142.187Z" fill="#2C2A40"/>
<path d="M485.87 114.723C478.13 111.787 475.594 106.022 478.263 97.4275C480.879 88.8866 487.231 86.3243 497.32 89.7407C497.694 83.7621 501.217 80.6393 507.889 80.3724C514.562 80.0521 519.126 82.561 521.581 87.8991C526.065 83.4151 531.056 81.8404 536.555 83.1749C544.802 85.1767 547.524 95.1855 544.962 99.9097C548.485 99.2691 551.555 100.977 554.17 105.034C558.174 111.12 559.215 120.168 554.25 123.531C558.147 127.801 559.028 132.845 556.893 138.664C554.811 144.482 550.887 147.312 545.122 147.151C546.243 154.732 543.12 159.456 535.754 161.324C528.387 163.139 525.051 160.79 525.745 154.278C512.88 124.545 499.589 111.36 485.87 114.723V114.723Z" fill="#2C2A40"/>
<path d="M531.911 165.808L533.512 173.655C533.912 175.657 533.112 177.658 531.51 178.86C517.338 189.189 506.528 182.062 504.286 178.619C505.968 177.018 536.395 148.272 536.875 132.098C539.17 145.497 537.516 156.733 531.911 165.808Z" fill="#F9B587"/>
<path d="M485.71 133.539C484.829 131.057 484.429 128.495 484.509 125.853C484.509 125.105 484.562 124.331 484.669 123.53L486.591 109.678C497.747 103.806 508.824 103.353 519.82 108.317C530.816 113.335 536.662 122.463 537.356 135.701C537.302 148.779 533.032 158.148 524.544 163.806C517.738 168.37 509.891 169.651 504.046 169.891C498.922 170.132 494.277 167.089 492.436 162.285L487.471 149.473C486.751 147.552 486.27 145.55 486.11 143.468C485.87 141.146 486.11 138.744 486.671 136.422L485.71 133.539Z" fill="#F9B587"/>
<path d="M500.123 121.769C506.261 115.737 511.466 115.443 515.736 120.888L514.615 122.97C510.292 119.233 505.647 119.714 500.683 124.411L500.123 121.769Z" fill="#2C2A40"/>
<path d="M485.71 133.539C484.829 131.057 484.429 128.495 484.509 125.853C486.27 126.013 488.512 126.413 489.633 126.733C490.861 127.107 491.742 127.801 492.276 128.815L489.874 136.182C489.553 137.303 490.354 138.424 491.475 138.424C494.358 138.477 497.24 139.678 500.123 142.027C492.116 140.906 488.112 142.107 486.11 143.468C485.87 141.146 486.11 138.744 486.671 136.422L485.71 133.539Z" fill="#F39568"/>
<path d="M484.909 123.611C486.991 123.771 488.859 124.144 490.514 124.732L490.834 127.134C488.592 126.413 486.591 126.093 484.909 126.173C484.028 126.253 483.388 125.612 483.388 124.812C483.468 124.091 484.108 123.611 484.909 123.611Z" fill="#2C2A40"/>
<path d="M490.354 147.952L512.373 145.87C510.719 153.771 505.968 157.614 498.121 157.401C492.035 157.24 489.446 154.091 490.354 147.952V147.952Z" fill="white"/>
<path d="M505.327 169.491C514.455 168.37 521.448 161.484 526.306 148.833C528.601 153.477 528.414 159.162 525.745 165.888C523.076 172.614 515.923 176.858 504.286 178.619L505.327 169.491Z" fill="#F39568"/>
<path d="M531.671 132.498C534.446 127.214 537.863 125.772 541.92 128.175C547.925 131.698 544.562 149.714 535.754 146.351C529.936 144.109 528.574 139.491 531.671 132.498V132.498Z" fill="#F9B587"/>
<path d="M502.845 128.735C503.699 126.119 505.3 124.812 507.649 124.812C511.066 124.812 513.094 126.253 513.735 129.135C510.425 124.545 506.795 124.411 502.845 128.735Z" fill="#2C2A40"/>
<path d="M491.315 131.458C488.966 128.682 487.071 129.002 485.63 132.418C487.231 130.23 489.126 129.91 491.315 131.458Z" fill="#2C2A40"/>
<path d="M498.281 97.8277C503.939 93.9309 515.042 99.269 531.59 113.842C529.348 116.831 526.359 117.952 522.622 117.205C518.939 116.404 517.178 113.468 517.338 108.397C516.697 109.678 514.108 110.479 509.571 110.799C505.034 111.173 502.071 109.652 500.683 106.235C501.537 108.264 500.283 110.452 496.92 112.801C493.557 115.096 489.874 115.737 485.87 114.723C482.427 106.716 489.793 103.673 498.281 97.8277V97.8277Z" fill="#2C2A40"/>
<path d="M536.234 125.052C536.448 128.201 535.487 131.644 533.352 135.381L528.948 135.461C530.176 132.365 530.87 128.949 531.03 125.212C527.186 122.703 526.386 119.26 528.628 114.883C535.834 112.961 535.914 120.247 536.234 125.052Z" fill="#2C2A40"/>
<path d="M644.73 107.356C644.143 108.264 643.049 108.771 641.447 108.878C642.408 108.184 643.209 107.009 643.849 105.354L644.73 107.356Z" fill="#F39568"/>
<path d="M426.217 478.805C426.217 478.805 426.244 478.778 426.297 478.725C426.244 478.778 426.217 478.805 426.217 478.805Z" fill="#A5C723"/>
<path opacity="0.2" d="M564.099 352.533C548.806 347.088 513.334 337.96 495.238 335.318C477.302 332.649 463.503 337.213 453.842 349.01C457.365 329.526 460.621 317.836 463.61 313.939C468.094 308.174 470.736 289.197 472.578 281.27C472.818 280.229 472.898 278.948 472.978 277.347C473.219 270.3 471.697 259.171 470.817 253.405C470.55 251.911 470.336 250.683 470.176 249.722C467.454 254.206 449.758 263.414 440.71 267.898C438.575 268.966 436.813 269.847 435.425 270.541L427.899 259.091L426.858 254.206C439.989 247.053 455.576 238.619 473.619 228.904C481.786 239.153 485.79 250.203 485.63 262.053C485.309 293.681 480.745 315.3 500.363 322.667C519.339 329.793 561.457 351.172 564.099 352.533V352.533Z" fill="#2C2A40"/>
<path opacity="0.2" d="M609.739 179.1C609.686 184.171 609.526 188.575 609.259 192.312C607.818 192.792 606.323 193.433 604.775 194.233C594.366 199.518 581.394 210.568 578.272 221.778C576.99 226.262 576.43 235.47 576.19 245.879C575.949 254.286 576.03 263.495 576.19 271.662C576.19 272.089 576.19 272.516 576.19 272.943C571.546 241.288 570.531 220.817 573.147 211.529C577.07 197.676 609.019 179.5 609.739 179.1Z" fill="#2C2A40"/>
<path d="M478.823 190.47C474.98 213.263 473.405 238.192 474.099 265.256C475.541 272.462 474.766 279.028 471.777 284.953C449.838 261.172 464.891 190.47 473.058 176.137C479.784 164.447 488.032 165.434 497.8 179.1L490.274 181.502C488.565 179.046 486.617 178.085 484.428 178.619C482.293 179.1 480.425 183.05 478.823 190.47V190.47Z" fill="#2C2A40"/>
<path d="M540.958 167.89C542.453 156.36 547.391 150.434 555.772 150.114C575.789 149.393 580.834 202 582.435 230.505C583.503 249.455 581.421 260.825 576.19 264.615L575.949 248.441C569.01 201.786 563.832 174.349 560.416 166.128C554.811 152.676 550.006 159.322 544.962 166.048L540.398 168.13" fill="#2C2A40"/>
<path d="M103.452 149.874C71.023 141.546 45.7206 110.959 39.0747 103.673C38.4341 103.032 37.7936 101.911 37.0729 100.47C30.6673 87.1783 20.3381 43.3795 18.0161 33.4507C17.8559 32.8102 17.7492 32.3031 17.6958 31.9294C17.6424 31.7159 17.589 31.5557 17.5356 31.449L35.9519 23.4419C36.9662 35.1856 40.4092 45.8083 46.2811 55.3101C52.2063 64.8118 57.8913 77.0894 63.3362 92.1427C74.9197 97.801 86.877 105.915 99.2079 116.484C105.667 129.989 107.082 141.119 103.452 149.874V149.874Z" fill="#F9B587"/>
<path d="M103.451 149.874C71.0228 141.547 45.7204 110.959 39.0745 103.673C38.434 103.032 37.7934 101.911 37.0728 100.47C37.4731 100.79 61.4143 121.289 70.3822 126.493C79.5103 131.778 89.7594 136.422 94.8038 132.899C99.8483 129.296 101.209 122.57 99.2077 116.484C105.667 129.99 107.081 141.119 103.451 149.874Z" fill="#F39568"/>
<path d="M13.0516 28.8068C11.5302 26.9651 8.8078 10.0702 9.36829 8.06841C9.84872 6.06664 12.1708 3.90473 14.2526 4.94565C16.9216 3.02395 19.0035 2.54353 20.4981 3.50438C22.4732 0.0880211 25.0622 -0.312333 28.265 2.30331C30.934 -0.472475 33.6298 -0.739377 36.3522 1.50261C40.1956 4.5453 39.8753 12.8727 38.3539 15.9954C40.1956 17.1164 41.7169 18.3175 41.3166 19.8388C40.5959 22.4812 37.4732 25.9242 36.9927 26.4847C36.9127 27.3655 36.6724 28.1662 36.112 28.4064C34.5906 29.127 22.2597 32.2498 18.6565 32.4099C15.9341 31.289 14.0658 30.0879 13.0516 28.8068V28.8068Z" fill="#F9B587"/>
<path d="M25.1423 20.7198C23.6477 19.2251 22.6868 14.5276 22.2598 6.62729L24.6619 16.9564C25.1423 18.6646 26.0765 19.8123 27.4644 20.3995C28.5053 20.8799 29.3861 20.4795 29.9466 19.839C28.9857 18.3977 27.7046 15.2749 30.427 12.3123C30.0533 9.21624 29.9999 6.76074 30.2668 4.9458L32.1085 12.4725C31.3078 12.686 30.6672 13.5935 30.1868 15.1949C29.7864 16.5561 30.2669 17.8372 30.8273 18.718C31.201 19.2518 31.5747 19.6788 31.9483 19.9991C32.749 20.8799 33.7099 21.7607 34.3505 21.6005C33.016 22.7215 31.7615 22.4279 30.5871 20.7198C28.9857 22.6415 27.1708 22.6415 25.1423 20.7198V20.7198Z" fill="#F39568"/>
<path d="M16.0942 9.83008C17.1618 15.6486 17.9892 19.145 18.5764 20.3194C19.6174 22.2411 22.0195 22.5613 23.2205 21.6806C24.0746 21.0934 24.5017 20.4261 24.5017 19.6788L26.1031 21.04C24.128 24.3496 21.7526 24.83 18.9768 22.4813C17.5889 21.3069 16.628 17.0898 16.0942 9.83008V9.83008Z" fill="#F39568"/>
<path d="M19.6975 22.5614C19.2971 23.4422 17.6957 25.7642 15.5338 25.444C14.4128 25.2304 13.7989 24.6699 13.6921 23.7625C14.2526 24.7233 15.3736 25.2037 16.895 24.2429C17.8558 23.6023 18.3096 22.6415 18.2562 21.3604L19.6975 22.5614Z" fill="#F39568"/>
<path d="M22.0196 32.4101C20.8986 33.2642 19.5641 33.6112 18.0161 33.451C17.8559 32.8105 17.7492 32.3034 17.6958 31.9297C18.9236 32.3034 20.3648 32.4635 22.0196 32.4101Z" fill="#F39568"/>
<path d="M36.8327 29.3671C35.765 30.1144 34.4572 30.4347 32.9092 30.3279C34.0836 30.0076 35.3113 29.2336 36.5924 28.0059L36.8327 29.3671Z" fill="#F39568"/>
<path d="M66.699 93.8243C62.7488 98.0414 58.3983 99.3759 53.6475 97.8279C55.9962 97.4542 59.2257 95.5592 63.336 92.1428L66.699 93.8243Z" fill="#F39568"/>
<path d="M83.1135 217.453C83.9943 216.973 85.0352 216.733 85.9961 216.573C86.3964 199.357 87.9979 183.023 90.7203 172.534C92.4818 165.968 98.0868 161.164 104.813 160.363C120.907 158.521 154.857 156.039 172.473 165.327C195.933 177.738 199.697 275.265 185.524 291.919C171.432 308.574 103.692 307.373 93.2825 288.236C89.9196 282.071 87.5975 267.578 86.5566 250.603C85.1954 250.283 83.8342 249.642 83.1135 248.601C81.1118 245.718 79.9107 219.135 83.1135 217.453V217.453Z" fill="#2C2A40"/>
<path d="M337.339 153.957C333.869 166.715 329.411 180.194 323.967 194.393C322.686 197.596 321.404 200.879 320.043 204.162C314.438 217.374 307.872 230.505 300.746 239.393C296.983 244.117 292.979 247.72 288.976 249.482C281.342 250.55 274.83 249.482 269.438 246.279C261.431 241.395 229.964 225.861 226.12 219.135C234.181 207.712 242.054 201.466 249.741 200.399C252.57 201.893 255.987 203.815 259.99 206.164C266.556 209.927 275.123 215.212 282.65 220.897C283.344 221.43 284.065 221.964 284.812 222.498C285.186 221.751 285.72 220.71 286.413 219.375C289.136 214.251 294.981 203.681 302.027 192.391C303.549 189.989 305.07 187.587 306.671 185.185C307.045 184.651 307.392 184.117 307.712 183.584C316.04 171.199 320.764 160.497 321.885 151.475C329.892 150.835 335.043 151.662 337.339 153.957V153.957Z" fill="#F9B587"/>
<path d="M323.967 194.393C322.685 197.596 321.404 200.879 320.043 204.162L302.027 192.391C303.548 189.989 305.07 187.587 306.671 185.185L323.967 194.393Z" fill="#F39568"/>
<path d="M300.746 239.393C296.983 244.117 292.979 247.72 288.976 249.482C281.342 250.549 274.83 249.482 269.438 246.279C261.431 241.395 229.964 225.861 226.12 219.135C234.181 207.712 242.054 201.466 249.741 200.398C252.57 201.893 255.987 203.815 259.99 206.164C259.35 208.566 256.547 217.213 251.503 221.377C245.657 226.341 259.189 237.551 270.88 242.596C282.57 247.64 290.737 247.48 300.746 239.393V239.393Z" fill="#F39568"/>
<path d="M284.331 235.55C285.239 231.92 284.678 227.035 282.65 220.897C283.344 221.43 284.064 221.964 284.812 222.498C285.185 221.751 285.719 220.71 286.413 219.375C287.214 227.222 286.52 232.614 284.331 235.55V235.55Z" fill="#F39568"/>
<path d="M230.604 521.002C219.874 514.837 216.111 508.671 209.625 497.942C205.862 491.536 202.259 486.171 200.017 482.888C198.496 480.646 198.335 477.684 199.537 475.202C199.643 475.041 199.75 474.855 199.857 474.641C202.419 469.917 206.583 463.111 210.186 462.951L214.27 465.193L228.442 472.879C232.552 482.381 234.527 489.187 234.367 493.298C234.127 498.742 244.616 511.233 247.739 518.28C248.006 518.92 248.22 519.481 248.38 519.961C248.486 520.335 248.567 520.682 248.62 521.002C249.341 526.927 241.333 527.167 230.604 521.002V521.002Z" fill="#B0B1CA"/>
<path d="M230.604 521.002C219.874 514.837 216.111 508.671 209.625 497.942C205.862 491.536 202.259 486.171 200.017 482.888C198.496 480.646 198.335 477.684 199.537 475.202C199.643 475.041 199.75 474.855 199.857 474.641C200.497 477.123 202.179 482.728 205.862 487.052C210.666 492.657 217.793 505.388 219.474 507.79C221.156 510.193 233.166 520.602 240.693 522.123C246.778 523.324 247.899 522.043 248.38 519.961C248.486 520.335 248.567 520.682 248.62 521.002C249.341 526.927 241.333 527.168 230.604 521.002V521.002Z" fill="#2C2A40"/>
<path opacity="0.2" d="M230.604 521.002C219.874 514.837 216.111 508.671 209.625 497.942C205.862 491.536 202.259 486.171 200.017 482.888C198.496 480.646 198.335 477.684 199.537 475.202C199.643 475.041 199.75 474.855 199.857 474.641C202.419 469.917 206.583 463.111 210.186 462.951L214.27 465.193C208.931 469.997 207.117 475.041 208.825 480.326C211.387 488.253 219.955 500.184 224.439 505.388C228.762 510.513 238.291 519.401 247.739 518.28C248.006 518.92 248.22 519.481 248.38 519.961C248.486 520.335 248.567 520.682 248.62 521.002C249.341 526.927 241.333 527.167 230.604 521.002V521.002Z" fill="#2C2A40"/>
<path d="M226.681 557.594C226.44 564.721 221.396 571.287 210.186 569.365C197.615 567.203 194.092 556.714 191.129 550.308C188.166 543.822 181.2 521.563 178.238 512.675C176.636 507.871 177.117 502.586 177.837 498.742C178.264 496.607 178.772 494.792 179.359 493.298L183.923 494.018L209.625 497.942C212.882 504.721 214.857 511.954 215.551 519.641C216.512 529.57 223.077 542.381 225.64 550.949C226.12 552.39 226.44 553.698 226.6 554.872C226.707 555.78 226.734 556.687 226.681 557.594V557.594Z" fill="#B0B1CA"/>
<path opacity="0.2" d="M226.681 557.594C226.44 564.721 221.396 571.287 210.186 569.365C197.615 567.203 194.092 556.714 191.129 550.308C188.166 543.822 181.2 521.563 178.238 512.675C176.636 507.871 177.117 502.586 177.837 498.742C178.264 496.607 178.772 494.792 179.359 493.298L183.923 494.018C183.522 498.502 185.444 511.153 188.967 517.959C193.371 526.367 196.734 545.023 204.421 553.271C212.108 561.518 225.96 563.039 225.64 550.949C226.12 552.39 226.44 553.698 226.6 554.872C226.707 555.78 226.734 556.687 226.681 557.594V557.594Z" fill="#2C2A40"/>
<path d="M226.681 557.594C226.44 564.721 221.396 571.287 210.186 569.365C197.615 567.203 194.092 556.714 191.129 550.308C188.166 543.822 181.2 521.563 178.238 512.675C176.636 507.871 177.117 502.586 177.837 498.742C178.478 502.666 181.921 515.397 185.844 525.566C192.33 541.981 197.455 556.473 201.939 561.278C206.423 566.162 224.118 569.365 226.681 557.594V557.594Z" fill="#2C2A40"/>
<path d="M94.8839 147.151L104.973 150.354C103.852 155.105 102.304 157.48 100.329 157.48C97.4462 157.48 94.0031 155.879 94.8839 147.151V147.151Z" fill="#00497B"/>
<path fill-rule="evenodd" clip-rule="evenodd" d="M265.034 430.442C256.146 439.09 243.816 454.383 240.292 455.424C236.769 456.545 231.164 472.399 228.442 472.879C226.44 473.36 220.275 471.518 216.431 469.116C215.15 474.481 214.189 478.484 213.949 479.926C213.148 484.97 215.31 490.895 214.51 500.023C213.709 509.151 202.099 512.915 191.689 509.472C181.2 505.949 177.917 489.294 177.917 485.531C177.917 481.767 180.399 475.602 178.478 469.436C177.25 465.326 177.891 460.388 180.399 454.623C178.745 447.844 179.892 436.474 183.843 420.513C181.013 420.353 179.492 418.325 179.278 414.428C175.835 414.748 139.804 377.195 128.273 366.625C120.64 359.526 116.823 346.287 116.823 326.91C118.265 324.268 120.026 321.866 122.108 319.784C122.321 319.517 122.562 319.277 122.829 319.063C138.149 304.224 164.492 298.912 201.858 303.129C218.273 315.22 224.438 313.619 257.187 333.236C282.89 348.609 295.701 361.821 300.105 366.786C301.387 368.307 302.347 370.068 302.908 371.99C309.153 395.771 273.522 422.195 265.034 430.442V430.442ZM230.604 403.058C232.606 407.942 230.764 413.067 228.602 421.234C234.314 412.853 241.974 402.043 251.582 388.805L209.625 375.914C222.17 390.433 229.163 399.481 230.604 403.058Z" fill="#140834"/>
<path d="M124.03 321.465L122.428 321.786C122.268 320.878 122.161 320.211 122.108 319.784C122.321 319.517 122.562 319.277 122.829 319.063L123.629 318.903C123.629 318.903 123.789 319.864 124.03 321.465Z" fill="#5B5B6C"/>
<path d="M125.631 330.273L124.03 330.594C123.709 328.885 123.389 327.15 123.069 325.389L124.67 325.069C124.991 326.83 125.311 328.565 125.631 330.273ZM127.553 338.921L125.951 339.321C125.551 337.64 125.231 335.958 124.83 334.117L126.352 333.796C126.779 335.558 127.179 337.266 127.553 338.921ZM129.875 347.488L128.354 347.969C127.873 346.367 127.393 344.686 126.912 342.844L128.434 342.444C128.914 344.259 129.394 345.94 129.875 347.488ZM133.078 355.656L131.636 356.376C130.942 355.042 130.222 353.387 129.475 351.412L130.996 350.851C131.716 352.773 132.357 354.375 133.078 355.656V355.656ZM138.683 362.141L137.562 363.342C135.88 361.661 134.599 360.38 133.798 359.579L134.999 358.458C135.747 359.259 136.974 360.487 138.683 362.141ZM145.088 368.387L143.967 369.588C142.579 368.254 141.298 367.026 140.124 365.905L141.245 364.704C142.419 365.878 143.7 367.106 145.088 368.387ZM151.494 374.552L150.373 375.753C149.092 374.526 147.837 373.298 146.61 372.07L147.731 370.949C148.958 372.124 150.213 373.325 151.494 374.552ZM157.98 380.718L156.859 381.919C155.578 380.691 154.296 379.463 153.015 378.236L154.136 377.115C155.417 378.289 156.699 379.49 157.98 380.718ZM164.465 386.803L163.344 388.004C162.063 386.83 160.782 385.629 159.501 384.401L160.622 383.2C161.903 384.428 163.184 385.629 164.465 386.803ZM171.031 392.889L169.91 394.09C168.683 392.915 167.401 391.714 166.067 390.486L167.108 389.285C168.442 390.513 169.75 391.714 171.031 392.889ZM177.597 398.894L176.556 400.095C175.328 398.974 174.021 397.8 172.633 396.572L173.674 395.371C175.061 396.599 176.369 397.773 177.597 398.894ZM184.403 404.659L183.362 405.94C182.241 405.059 180.88 403.938 179.279 402.497L180.319 401.296C181.921 402.657 183.282 403.778 184.403 404.659V404.659ZM190.408 411.385L188.807 411.705C188.407 409.703 187.686 408.582 186.565 408.102L187.206 406.581C189.367 407.542 190.088 409.704 190.408 411.385ZM191.85 420.113L190.328 420.593C189.768 418.752 189.528 416.83 189.367 415.308L190.969 415.068C191.129 416.59 191.369 418.431 191.85 420.113V420.113ZM192.09 424.036C192.01 425.397 191.77 427.159 191.369 429.321L189.768 429.081C190.168 426.919 190.408 425.237 190.488 423.876L192.09 424.036ZM190.649 433.004C190.382 434.339 190.088 435.7 189.768 437.088L189.608 438.129L188.006 437.808L188.246 436.767C188.513 435.326 188.78 433.965 189.047 432.684L190.649 433.004ZM188.887 441.652C188.487 443.734 188.166 445.335 187.926 446.856L186.325 446.536C186.565 445.095 186.885 443.413 187.286 441.412L188.887 441.652ZM187.045 454.783C187.045 454.997 187.045 455.21 187.045 455.424L185.444 455.504C185.444 455.29 185.444 455.05 185.444 454.783C185.444 453.422 185.524 451.901 185.764 450.139L187.366 450.299C187.206 452.061 187.045 453.502 187.045 454.783V454.783ZM187.366 461.91C187.366 462.71 187.339 463.538 187.286 464.392H185.684C185.738 463.538 185.764 462.71 185.764 461.91C185.764 460.949 185.738 460.041 185.684 459.187L187.286 459.107C187.339 460.015 187.366 460.949 187.366 461.91ZM187.126 468.075C187.072 469.036 187.019 469.97 186.965 470.878C186.912 471.678 186.859 472.479 186.805 473.28L185.204 473.2C185.257 472.399 185.311 471.598 185.364 470.798C185.417 469.89 185.471 468.956 185.524 467.995L187.126 468.075ZM186.725 482.168H185.124C185.124 481.901 185.124 481.634 185.124 481.367C185.044 480.486 185.044 479.605 185.044 478.725C185.044 478.084 185.044 477.47 185.044 476.883L186.645 476.963C186.645 477.55 186.645 478.137 186.645 478.725C186.645 479.632 186.672 480.486 186.725 481.287C186.725 481.554 186.725 481.847 186.725 482.168V482.168ZM186.485 485.851C186.325 487.452 186.085 489.214 185.764 491.136L184.163 490.895C184.483 488.974 184.723 487.212 184.884 485.691L186.485 485.851ZM185.044 494.739C184.643 496.34 184.243 498.102 183.843 499.863L182.241 499.463C182.668 497.701 183.069 496.02 183.442 494.418L185.044 494.739Z" fill="#5B5B6C"/>
<path d="M203.86 363.343C205.088 363.77 206.743 364.33 208.825 365.024L208.344 366.545C206.262 365.851 204.581 365.291 203.3 364.864L203.86 363.343Z" fill="#5B5B6C"/>
<path d="M216.752 369.348C214.937 368.761 213.282 368.2 211.787 367.666L212.268 366.145C213.789 366.706 215.471 367.266 217.232 367.826L216.752 369.348Z" fill="#5B5B6C"/>
<path d="M230.364 427.8L231.725 428.76L228.682 433.084L227.401 432.123L230.364 427.8Z" fill="#5B5B6C"/>
<path d="M225.239 435.086L226.6 436.047L223.558 440.291L222.277 439.41L225.239 435.086Z" fill="#5B5B6C"/>
<path d="M220.115 442.372L221.476 443.253L219.554 446.056C219.554 445.148 219.528 444.241 219.474 443.333L220.115 442.372Z" fill="#5B5B6C"/>
<path d="M225.159 372.23C223.451 371.643 221.796 371.083 220.195 370.549L220.675 369.027C222.33 369.561 223.985 370.122 225.64 370.709L225.159 372.23Z" fill="#5B5B6C"/>
<path d="M250.301 381.038C248.753 380.451 247.125 379.864 245.417 379.277L245.897 377.755C247.659 378.343 249.314 378.93 250.862 379.517L250.301 381.038Z" fill="#5B5B6C"/>
<path d="M233.566 375.113C231.912 374.526 230.257 373.965 228.602 373.432L229.082 371.91C230.737 372.444 232.392 373.004 234.047 373.592L233.566 375.113Z" fill="#5B5B6C"/>
<path d="M252.383 399.935L253.584 400.976C252.383 402.337 251.182 403.698 250.061 404.899L248.86 403.778C249.981 402.577 251.182 401.216 252.383 399.935Z" fill="#5B5B6C"/>
<path d="M257.988 393.049L259.269 394.009C258.389 395.291 257.268 396.652 255.986 398.173L254.785 397.132C256.067 395.611 257.107 394.33 257.988 393.049V393.049Z" fill="#5B5B6C"/>
<path d="M258.629 384.161C257.454 383.68 255.826 383.04 253.744 382.239L254.305 380.718C256.387 381.518 258.068 382.159 259.189 382.639L258.629 384.161Z" fill="#5B5B6C"/>
<path d="M262.632 386.563C262.632 387.764 262.232 389.205 261.271 390.887L259.83 390.086C260.631 388.645 261.031 387.47 261.031 386.563C261.031 386.296 261.004 386.029 260.951 385.762L262.472 385.282C262.579 385.655 262.632 386.082 262.632 386.563V386.563Z" fill="#5B5B6C"/>
<path d="M235.488 420.593L236.849 421.474L233.807 425.798L232.446 424.837L235.488 420.593Z" fill="#5B5B6C"/>
<path d="M246.458 406.5L247.659 407.541C246.138 409.223 245.097 410.424 244.216 411.465L242.935 410.424C243.896 409.383 244.937 408.102 246.458 406.5V406.5Z" fill="#5B5B6C"/>
<path d="M240.613 413.307L241.974 414.268C241.814 414.481 241.654 414.695 241.494 414.908L238.931 418.511L237.57 417.63L240.132 413.947C240.292 413.734 240.453 413.52 240.613 413.307Z" fill="#5B5B6C"/>
<path d="M237.49 374.793C239.198 375.38 240.853 375.967 242.454 376.554L241.974 378.076C240.319 377.488 238.664 376.901 237.01 376.314L237.49 374.793Z" fill="#5B5B6C"/>
<path d="M257.188 204.402C255.346 212.81 247.339 220.496 241.013 225.461C237.971 227.81 235.221 229.678 232.766 231.066L229.003 227.863L217.312 217.774C217.312 217.774 215.444 221.644 211.707 229.384C206.102 240.995 207.624 270.621 206.983 279.028C206.423 286.395 217.793 303.61 220.035 309.535C220.355 310.336 220.515 310.976 220.435 311.297C219.474 313.699 191.449 317.382 173.193 311.297C154.937 305.291 118.024 327.311 116.823 326.911C115.622 326.51 114.581 272.622 108.896 248.601C105.16 232.64 106.414 203.708 112.66 161.804L105.053 159.402L101.61 158.281C94.9907 158.655 92.7487 154.945 94.884 147.151C95.0975 154.998 97.206 157.908 101.21 155.879C103.932 154.518 103.852 146.511 102.891 138.023C101.69 127.694 99.2879 116.645 99.2078 116.484C99.3679 116.564 101.21 117.045 104.012 117.846C113.621 120.488 134.759 126.814 142.766 131.538C145.168 132.979 150.934 137.143 155.418 140.426C157.659 142.027 159.635 143.468 161.343 144.749C177.197 153.477 182.241 152.917 195.133 156.76C195.72 156.92 196.307 157.08 196.894 157.24C212.508 161.885 230.444 167.409 237.09 178.619C242.214 187.267 250.942 197.356 254.946 201.92C255.906 202.988 256.654 203.815 257.188 204.402V204.402Z" fill="#2E186A"/>
<path d="M105.053 159.402L101.61 158.281C94.9907 158.655 92.7487 154.945 94.884 147.151C95.0975 154.998 97.206 157.908 101.21 155.879C103.932 154.518 103.852 146.511 102.891 138.023C101.69 127.694 99.2879 116.645 99.2078 116.484C99.3679 116.564 101.21 117.045 104.012 117.846C106.414 127.454 110.738 148.833 105.053 159.402Z" fill="#2C2A40"/>
<path d="M257.187 204.402C255.346 212.809 247.339 220.496 241.013 225.461C237.97 227.809 235.221 229.678 232.766 231.066L229.002 227.863C241.814 219.215 250.862 208.326 254.385 201.279C255.292 202.294 256.227 203.334 257.187 204.402Z" fill="#2C2A40"/>
<path d="M193.771 156.36C191.289 163.085 187.446 169.171 167.748 164.367C152.962 160.79 149.599 153.344 157.659 142.027C159.901 143.628 161.129 144.536 161.343 144.749C177.197 153.477 177.597 151.635 190.488 155.479C191.049 155.639 193.211 156.199 193.771 156.36Z" fill="#2C2A40"/>
<path opacity="0.2" d="M241.013 225.46C237.97 227.809 235.221 229.678 232.766 231.065L217.312 217.774C217.312 217.774 215.444 221.644 211.707 229.384C206.102 240.994 207.624 270.62 206.983 279.028C199.617 261.466 202.392 236.617 215.31 204.482C220.915 215.291 240.693 225.22 241.013 225.46Z" fill="#2C2A40"/>
<path opacity="0.2" d="M220.435 311.296C219.474 313.699 191.449 317.382 173.193 311.296C154.937 305.291 118.024 327.311 116.823 326.91C115.622 326.51 114.581 272.622 108.896 248.601C105.16 232.64 106.414 203.708 112.66 161.804L101.61 158.281C94.9907 158.655 92.7487 154.945 94.884 147.151C95.0975 154.998 97.206 157.907 101.21 155.879C103.932 154.518 103.852 146.511 102.891 138.023C115.702 147.258 125.765 152.943 133.078 155.078C130.996 168.263 128.994 183.423 127.072 200.559C124.11 226.261 125.951 243.957 131.877 261.973C137.802 279.989 151.014 297.204 169.27 299.046C187.606 300.967 205.462 313.779 220.035 309.535C220.355 310.336 220.515 310.976 220.435 311.296V311.296Z" fill="#736CB7"/>
<path d="M225.479 95.9861C225.159 96.253 224.892 96.4665 224.679 96.6267L164.385 117.765C158.353 114.99 155.524 108.344 155.898 97.8277C156.298 86.4577 163.585 81.2531 167.668 79.2513C167.188 78.7709 166.707 78.2104 166.387 77.73C165.827 77.0093 166.307 75.9684 167.188 75.9684C167.935 75.9684 168.603 75.9951 169.19 76.0485C169.03 75.3278 168.949 74.6072 168.869 73.8866C168.789 73.0058 169.75 72.4453 170.551 72.9257C171.752 73.6464 172.633 74.367 173.193 75.0876C173.193 75.0876 173.22 75.0609 173.273 75.0076C179.118 69.1624 186.965 65.6393 195.213 65.1588C199.777 64.9186 205.302 64.5183 210.746 63.8777C221.316 62.7567 229.563 64.5983 232.606 61.4756C241.307 75.8883 238.931 87.3918 225.479 95.9861Z" fill="#2C2A40"/>
<path d="M224.278 92.1426C228.389 101.751 227.054 109.411 220.275 115.123C219.261 103.646 220.595 95.986 224.278 92.1426Z" fill="#2C2A40"/>
<path d="M188.407 159.002C188.3 159.109 188.193 159.189 188.086 159.242C186.885 160.203 185.044 161.324 182.241 162.205C177.037 163.886 165.426 158.762 160.382 156.279C159.101 155.639 158.46 154.117 158.941 152.676C161.743 145.23 163.104 137.303 163.104 129.295C163.104 121.128 164.759 113.308 168.069 105.835C166.787 111.6 168.949 119.927 172.312 128.335C177.837 142.107 186.565 156.119 188.407 159.002V159.002Z" fill="#F9B587"/>
<path d="M216.271 122.329C216.271 124.731 215.871 127.133 215.15 129.375C214.43 131.377 213.549 133.219 212.348 134.98L204.341 146.35C201.378 150.594 196.013 152.436 191.049 150.995C185.364 149.313 177.997 146.11 172.472 140.025C165.48 132.391 163.531 122.142 166.627 109.278C170.577 96.4663 178.558 88.9397 190.569 86.6977C202.579 84.4557 213.335 87.5518 222.837 95.9859L221.396 110.158C221.289 110.906 221.156 111.68 220.995 112.48C220.435 115.043 219.394 117.525 217.953 119.767L216.271 122.329Z" fill="#F9B587"/>
<path d="M205.462 107.036C201.672 101.271 197.214 99.6959 192.09 102.312L191.449 99.9895C196.947 95.6657 202.019 97.2137 206.663 104.634L205.462 107.036Z" fill="#2C2A40"/>
<path d="M216.271 122.329C216.271 124.732 215.871 127.134 215.15 129.376C213.549 127.534 209.866 125.372 201.698 124.491C205.115 122.943 208.238 122.49 211.067 123.13C212.188 123.37 213.229 122.409 213.149 121.288L212.588 113.442C213.389 112.641 214.43 112.187 215.711 112.08C216.912 112.08 219.234 112.16 220.996 112.481C220.435 115.043 219.394 117.525 217.953 119.767L216.271 122.329Z" fill="#F39568"/>
<path d="M222.277 111.68C222.277 111.68 222.277 111.706 222.277 111.76C222.197 112.481 221.316 112.961 220.515 112.721C218.834 112.24 216.832 112 214.51 112.16L215.31 109.918C217.125 109.705 219.074 109.785 221.156 110.158C221.956 110.319 222.437 111.039 222.277 111.68Z" fill="#2C2A40"/>
<path d="M199.857 140.185C192.17 138.477 188.46 133.513 188.727 125.292L209.866 132.739C209.279 139.037 205.942 141.52 199.857 140.185Z" fill="white"/>
<path d="M189.848 150.274L188.887 158.601C188.78 158.708 188.62 158.842 188.407 159.002C188.3 159.109 188.193 159.189 188.086 159.242C185.044 157.801 171.992 151.315 170.711 141.787C169.91 135.701 171.111 131.137 172.312 128.335C172.953 126.787 173.62 125.639 174.314 124.892C176.022 138.504 181.2 146.964 189.848 150.274V150.274Z" fill="#F39568"/>
<path d="M165.586 120.167C156.138 121.288 157.259 102.792 164.065 100.79C168.602 99.4024 171.592 101.644 173.033 107.516C174.368 115.15 171.885 119.367 165.586 120.167Z" fill="#F9B587"/>
<path d="M193.371 86.2976C190.702 86.5645 189.208 88.3794 188.887 91.7424C188.407 96.7869 187.526 105.354 181.04 105.114C176.77 105.007 174.421 107.57 173.994 112.801L169.35 111.68C169.03 102.392 169.91 96.1463 171.992 92.9435C175.035 88.2193 188.006 81.3332 193.371 86.2976V86.2976Z" fill="#2C2A40"/>
<path d="M192.65 108.397C194.092 106.529 196.307 106.021 199.296 106.876C202.232 107.73 203.62 109.731 203.46 112.881C201.805 108.771 198.202 107.276 192.65 108.397V108.397Z" fill="#2C2A40"/>
<path d="M213.549 116.164C214.563 115.523 215.684 115.443 216.912 115.924C218.14 116.404 218.54 117.445 218.113 119.046C217.846 117.018 216.325 116.057 213.549 116.164V116.164Z" fill="#2C2A40"/>
<path d="M337.419 209.206L263.353 162.365L294.34 113.362L368.406 160.123L337.419 209.206Z" fill="#6C63FF"/>
<path d="M368.406 160.123L337.419 209.206L263.353 162.365L266.556 162.125L367.045 155.078L367.926 158.521L368.406 160.123Z" fill="#6C63FF"/>
<path d="M367.925 158.521L338.299 205.523C337.338 204.882 337.739 205.123 336.057 204.082L315.799 157.24L367.045 155.078L367.925 158.521Z" fill="white"/>
<path d="M336.057 204.082L265.275 159.322L296.262 110.319L367.045 155.078L336.057 204.082Z" fill="#6C63FF"/>
<path d="M344.385 140.746L342.063 139.304C338.86 140.506 338.94 137.783 335.977 142.427C333.415 146.351 331.654 151.475 329.171 151.796C327.09 152.116 327.41 149.233 328.531 145.55C326.849 148.753 324.607 151.555 322.926 151.796C321.004 152.036 321.164 149.714 322.045 146.351C320.764 148.272 319.323 149.634 318.122 149.794C316.04 150.114 316.44 147.151 317.641 143.308C316.52 144.589 315.479 145.47 314.518 145.63C311.236 146.11 314.038 138.664 316.28 132.338C317.721 128.068 321.511 125.372 327.65 124.251C328.771 123.931 331.173 125.132 331.814 126.573C332.187 127 332.401 127.534 332.454 128.175C332.721 128.121 332.935 128.068 333.095 128.014C334.056 127.694 335.497 128.815 335.897 130.096C336.698 129.936 337.579 129.936 338.299 130.256C339.661 130.817 340.702 131.858 340.782 132.979C341.823 133.139 343.344 134.26 344.065 135.541C344.145 135.701 345.586 137.943 344.385 140.746V140.746Z" fill="#F9B587"/>
<path d="M152.135 138.023C152.081 134.66 151.307 132.365 149.813 131.137C147.571 129.296 136.921 136.422 121.628 162.525C111.379 179.927 106.734 199.651 107.695 221.697L107.375 236.911C95.4177 217.053 94.617 193.886 104.973 167.409C115.302 141.066 134.279 115.684 151.414 119.046C157.286 120.221 159.368 127.881 157.659 142.027L152.135 138.023Z" fill="#2C2A40"/>
<path d="M196.894 157.24C200.31 148.433 207.49 145.977 218.433 149.874C232.766 155.079 231.244 170.372 229.083 190.55C227.588 203.948 220.328 227.276 207.303 260.532C206.769 248.841 207.25 239.5 208.745 232.507C217.659 202.934 220.515 182.303 217.312 170.612C214.109 158.922 208.905 154.945 201.698 158.682L196.894 157.24Z" fill="#2C2A40"/>
</g>
<defs>
<clipPath id="clip0_396_679">
<rect width="675" height="570" fill="white"/>
</clipPath>
</defs>
</svg>
